%TF.GenerationSoftware,KiCad,Pcbnew,5.1.6-1.fc32*%
%TF.CreationDate,2020-06-22T14:16:22+02:00*%
%TF.ProjectId,Raspberry Pi Fan Hat,52617370-6265-4727-9279-205069204661,1.0*%
%TF.SameCoordinates,Original*%
%TF.FileFunction,Soldermask,Top*%
%TF.FilePolarity,Negative*%
%FSLAX46Y46*%
G04 Gerber Fmt 4.6, Leading zero omitted, Abs format (unit mm)*
G04 Created by KiCad (PCBNEW 5.1.6-1.fc32) date 2020-06-22 14:16:22*
%MOMM*%
%LPD*%
G01*
G04 APERTURE LIST*
%ADD10O,1.800000X1.800000*%
%ADD11R,1.800000X1.800000*%
%ADD12R,0.900000X1.000000*%
G04 APERTURE END LIST*
D10*
%TO.C,J2*%
X100800000Y-73600000D03*
D11*
X103340000Y-73600000D03*
%TD*%
%TO.C,R1*%
G36*
G01*
X107128262Y-69700000D02*
X106171738Y-69700000D01*
G75*
G02*
X105900000Y-69428262I0J271738D01*
G01*
X105900000Y-68721738D01*
G75*
G02*
X106171738Y-68450000I271738J0D01*
G01*
X107128262Y-68450000D01*
G75*
G02*
X107400000Y-68721738I0J-271738D01*
G01*
X107400000Y-69428262D01*
G75*
G02*
X107128262Y-69700000I-271738J0D01*
G01*
G37*
G36*
G01*
X107128262Y-71750000D02*
X106171738Y-71750000D01*
G75*
G02*
X105900000Y-71478262I0J271738D01*
G01*
X105900000Y-70771738D01*
G75*
G02*
X106171738Y-70500000I271738J0D01*
G01*
X107128262Y-70500000D01*
G75*
G02*
X107400000Y-70771738I0J-271738D01*
G01*
X107400000Y-71478262D01*
G75*
G02*
X107128262Y-71750000I-271738J0D01*
G01*
G37*
%TD*%
D12*
%TO.C,Q1*%
X103000000Y-70900000D03*
X102050000Y-68900000D03*
X103950000Y-68900000D03*
%TD*%
D10*
%TO.C,J1*%
X105830000Y-66250000D03*
X103290000Y-66250000D03*
D11*
X100750000Y-66250000D03*
%TD*%
%TO.C,D1*%
G36*
G01*
X100137500Y-70175000D02*
X100662500Y-70175000D01*
G75*
G02*
X100925000Y-70437500I0J-262500D01*
G01*
X100925000Y-71062500D01*
G75*
G02*
X100662500Y-71325000I-262500J0D01*
G01*
X100137500Y-71325000D01*
G75*
G02*
X99875000Y-71062500I0J262500D01*
G01*
X99875000Y-70437500D01*
G75*
G02*
X100137500Y-70175000I262500J0D01*
G01*
G37*
G36*
G01*
X100137500Y-68425000D02*
X100662500Y-68425000D01*
G75*
G02*
X100925000Y-68687500I0J-262500D01*
G01*
X100925000Y-69312500D01*
G75*
G02*
X100662500Y-69575000I-262500J0D01*
G01*
X100137500Y-69575000D01*
G75*
G02*
X99875000Y-69312500I0J262500D01*
G01*
X99875000Y-68687500D01*
G75*
G02*
X100137500Y-68425000I262500J0D01*
G01*
G37*
%TD*%
M02*
